<svg width="50" height="50" viewBox="0 0 50 50" fill="none" xmlns="http://www.w3.org/2000/svg">
<circle cx="25" cy="25" r="25" fill="#ECE4FF"/>
<path d="M34.5512 15.4538C32.6632 13.5658 30.2577 12.2802 27.639 11.7593C25.0203 11.2385 22.3059 11.5059 19.8392 12.5277C17.3724 13.5495 15.2641 15.2799 13.7807 17.4999C12.2974 19.7199 11.5056 22.33 11.5056 25C11.5056 27.67 12.2974 30.2801 13.7807 32.5001C15.2641 34.7202 17.3724 36.4505 19.8392 37.4723C22.3059 38.4941 25.0203 38.7615 27.639 38.2407C30.2577 37.7198 32.6632 36.4342 34.5512 34.5463C35.8142 33.2979 36.8169 31.8113 37.5013 30.1727C38.1857 28.534 38.538 26.7758 38.538 25C38.538 23.2242 38.1857 21.466 37.5013 19.8274C36.8169 18.1887 35.8142 16.7021 34.5512 15.4538ZM32.4262 17.5788C32.8296 17.9801 33.1995 18.4136 33.5325 18.875L30.125 22.8863L27.2125 14.735C29.1895 15.1567 31.0016 16.1433 32.4287 17.575L32.4262 17.5788ZM17.57 17.5788C19.2826 15.8575 21.542 14.7877 23.9587 14.5538L25.7287 19.51L17.2137 17.9513C17.33 17.8238 17.4487 17.6988 17.5725 17.575L17.57 17.5788ZM15 28.2125C14.208 25.7335 14.3594 23.0493 15.425 20.675L20.605 21.625L15 28.2125ZM17.5687 32.425C17.167 32.0222 16.7987 31.5875 16.4675 31.125L19.875 27.1138L22.7875 35.265C20.8109 34.843 18.9993 33.8565 17.5725 32.425H17.5687ZM22.1137 24.4738L24.0112 22.2425L26.8937 22.7688L27.8787 25.5263L25.9825 27.7575L23.1 27.2313L22.1137 24.4738ZM32.425 32.425C30.7121 34.1458 28.4529 35.2155 26.0362 35.45L24.2687 30.5L32.7862 32.055C32.67 32.1763 32.5512 32.3013 32.4287 32.425H32.425ZM29.395 28.375L35 21.7875C35.7922 24.2666 35.6404 26.951 34.5737 29.325L29.395 28.375Z" fill="#4A00FF"/>
</svg>
