<svg width="12" height="12" viewBox="0 0 12 12" fill="none" xmlns="http://www.w3.org/2000/svg">
<circle cx="6.5" cy="6" r="5.5" fill="#0037FF"/>
<path d="M7.40959 3.436C7.40959 3.612 7.34559 3.76133 7.21759 3.884C7.09493 4.00667 6.94559 4.068 6.76959 4.068C6.59359 4.068 6.44426 4.00667 6.32159 3.884C6.19893 3.76133 6.13759 3.612 6.13759 3.436C6.13759 3.26 6.19893 3.11067 6.32159 2.988C6.44426 2.86 6.59359 2.796 6.76959 2.796C6.94559 2.796 7.09493 2.86 7.21759 2.988C7.34559 3.11067 7.40959 3.26 7.40959 3.436ZM5.36959 7.588C5.36959 7.51867 5.37493 7.44133 5.38559 7.356C5.39626 7.26533 5.41226 7.16933 5.43359 7.068L5.97759 4.5H7.12959L6.55359 7.22C6.54293 7.268 6.53493 7.31333 6.52959 7.356C6.52426 7.39333 6.52159 7.43333 6.52159 7.476C6.52159 7.58267 6.54559 7.66 6.59359 7.708C6.64693 7.75067 6.73226 7.772 6.84959 7.772C6.99893 7.772 7.14026 7.708 7.27359 7.58C7.40693 7.44667 7.50559 7.276 7.56959 7.068H7.90559C7.73493 7.55333 7.50559 7.92133 7.21759 8.172C6.92959 8.42267 6.59893 8.548 6.22559 8.548C5.95893 8.548 5.74826 8.46533 5.59359 8.3C5.44426 8.12933 5.36959 7.892 5.36959 7.588Z" fill="white"/>
</svg>
